<mxfile host="app.diagrams.net" modified="2022-01-20T10:29:06.771Z" agent="5.0 (Windows NT 10.0; Win64; x64) AppleWebKit/537.36 (KHTML, like Gecko) Chrome/97.0.4692.71 Safari/537.36 Edg/97.0.1072.62" etag="xMNuQq9zhUcvRzRaUt0g" version="16.2.7" type="github">
  <diagram id="Hw2S453Y-IoN0b7v4K89" name="Page-1">
    <mxGraphModel dx="824" dy="1996" grid="1" gridSize="10" guides="1" tooltips="1" connect="1" arrows="1" fold="1" page="1" pageScale="1" pageWidth="850" pageHeight="1100" math="0" shadow="0">
      <root>
        <mxCell id="0" />
        <mxCell id="1" parent="0" />
        <mxCell id="MkOLtfdrB1ku3LL33Bix-45" value="" style="rounded=0;whiteSpace=wrap;html=1;strokeColor=#FFFFFF;" vertex="1" parent="1">
          <mxGeometry x="270" y="-490" width="900" height="850" as="geometry" />
        </mxCell>
        <mxCell id="MkOLtfdrB1ku3LL33Bix-41" style="edgeStyle=none;rounded=0;orthogonalLoop=1;jettySize=auto;html=1;exitX=0.5;exitY=0;exitDx=0;exitDy=0;entryX=1;entryY=1;entryDx=0;entryDy=0;shape=link;" edge="1" parent="1" source="MkOLtfdrB1ku3LL33Bix-1" target="MkOLtfdrB1ku3LL33Bix-15">
          <mxGeometry relative="1" as="geometry" />
        </mxCell>
        <mxCell id="MkOLtfdrB1ku3LL33Bix-1" value="Arcade" style="ellipse;whiteSpace=wrap;html=1;" vertex="1" parent="1">
          <mxGeometry x="960" y="-80" width="120" height="80" as="geometry" />
        </mxCell>
        <mxCell id="MkOLtfdrB1ku3LL33Bix-2" value="Communal_Garden" style="ellipse;whiteSpace=wrap;html=1;" vertex="1" parent="1">
          <mxGeometry x="510" y="-190" width="120" height="80" as="geometry" />
        </mxCell>
        <mxCell id="MkOLtfdrB1ku3LL33Bix-36" style="edgeStyle=none;rounded=0;orthogonalLoop=1;jettySize=auto;html=1;exitX=0.5;exitY=0;exitDx=0;exitDy=0;entryX=0.5;entryY=1;entryDx=0;entryDy=0;shape=link;" edge="1" parent="1" source="MkOLtfdrB1ku3LL33Bix-3" target="MkOLtfdrB1ku3LL33Bix-5">
          <mxGeometry relative="1" as="geometry" />
        </mxCell>
        <mxCell id="MkOLtfdrB1ku3LL33Bix-37" style="edgeStyle=none;rounded=0;orthogonalLoop=1;jettySize=auto;html=1;exitX=0;exitY=0.5;exitDx=0;exitDy=0;entryX=1;entryY=0.5;entryDx=0;entryDy=0;shape=link;" edge="1" parent="1" source="MkOLtfdrB1ku3LL33Bix-3" target="MkOLtfdrB1ku3LL33Bix-6">
          <mxGeometry relative="1" as="geometry" />
        </mxCell>
        <mxCell id="MkOLtfdrB1ku3LL33Bix-3" value="Lobby" style="ellipse;whiteSpace=wrap;html=1;" vertex="1" parent="1">
          <mxGeometry x="510" y="-300" width="120" height="80" as="geometry" />
        </mxCell>
        <mxCell id="MkOLtfdrB1ku3LL33Bix-4" value="Restaurant" style="ellipse;whiteSpace=wrap;html=1;" vertex="1" parent="1">
          <mxGeometry x="360" y="140" width="120" height="80" as="geometry" />
        </mxCell>
        <mxCell id="MkOLtfdrB1ku3LL33Bix-5" value="Drug_Store" style="ellipse;whiteSpace=wrap;html=1;" vertex="1" parent="1">
          <mxGeometry x="510" y="-410" width="120" height="80" as="geometry" />
        </mxCell>
        <mxCell id="MkOLtfdrB1ku3LL33Bix-6" value="Gym" style="ellipse;whiteSpace=wrap;html=1;" vertex="1" parent="1">
          <mxGeometry x="360" y="-300" width="120" height="80" as="geometry" />
        </mxCell>
        <mxCell id="MkOLtfdrB1ku3LL33Bix-7" value="Grocery" style="ellipse;whiteSpace=wrap;html=1;" vertex="1" parent="1">
          <mxGeometry x="360" y="-190" width="120" height="80" as="geometry" />
        </mxCell>
        <mxCell id="MkOLtfdrB1ku3LL33Bix-8" value="Shops" style="ellipse;whiteSpace=wrap;html=1;" vertex="1" parent="1">
          <mxGeometry x="360" y="-80" width="120" height="80" as="geometry" />
        </mxCell>
        <mxCell id="MkOLtfdrB1ku3LL33Bix-9" value="Workshop" style="ellipse;whiteSpace=wrap;html=1;" vertex="1" parent="1">
          <mxGeometry x="810" y="-300" width="120" height="80" as="geometry" />
        </mxCell>
        <mxCell id="MkOLtfdrB1ku3LL33Bix-10" value="Startups" style="ellipse;whiteSpace=wrap;html=1;" vertex="1" parent="1">
          <mxGeometry x="360" y="30" width="120" height="80" as="geometry" />
        </mxCell>
        <mxCell id="MkOLtfdrB1ku3LL33Bix-11" value="Fab_Labs" style="ellipse;whiteSpace=wrap;html=1;" vertex="1" parent="1">
          <mxGeometry x="660" y="-300" width="120" height="80" as="geometry" />
        </mxCell>
        <mxCell id="MkOLtfdrB1ku3LL33Bix-12" value="Laundry" style="ellipse;whiteSpace=wrap;html=1;" vertex="1" parent="1">
          <mxGeometry x="680" y="270" width="120" height="80" as="geometry" />
        </mxCell>
        <mxCell id="MkOLtfdrB1ku3LL33Bix-13" value="Cinematheque" style="ellipse;whiteSpace=wrap;html=1;" vertex="1" parent="1">
          <mxGeometry x="510" y="-80" width="120" height="80" as="geometry" />
        </mxCell>
        <mxCell id="MkOLtfdrB1ku3LL33Bix-14" value="Library" style="ellipse;whiteSpace=wrap;html=1;" vertex="1" parent="1">
          <mxGeometry x="810" y="-190" width="120" height="80" as="geometry" />
        </mxCell>
        <mxCell id="MkOLtfdrB1ku3LL33Bix-31" style="rounded=0;orthogonalLoop=1;jettySize=auto;html=1;exitX=1;exitY=1;exitDx=0;exitDy=0;entryX=0;entryY=0;entryDx=0;entryDy=0;shape=link;" edge="1" parent="1" source="MkOLtfdrB1ku3LL33Bix-15" target="MkOLtfdrB1ku3LL33Bix-16">
          <mxGeometry relative="1" as="geometry" />
        </mxCell>
        <mxCell id="MkOLtfdrB1ku3LL33Bix-33" style="edgeStyle=none;rounded=0;orthogonalLoop=1;jettySize=auto;html=1;exitX=0.5;exitY=0;exitDx=0;exitDy=0;shape=link;" edge="1" parent="1" source="MkOLtfdrB1ku3LL33Bix-15" target="MkOLtfdrB1ku3LL33Bix-11">
          <mxGeometry relative="1" as="geometry" />
        </mxCell>
        <mxCell id="MkOLtfdrB1ku3LL33Bix-34" style="edgeStyle=none;rounded=0;orthogonalLoop=1;jettySize=auto;html=1;exitX=1;exitY=0;exitDx=0;exitDy=0;entryX=0;entryY=1;entryDx=0;entryDy=0;shape=link;" edge="1" parent="1" source="MkOLtfdrB1ku3LL33Bix-15" target="MkOLtfdrB1ku3LL33Bix-9">
          <mxGeometry relative="1" as="geometry" />
        </mxCell>
        <mxCell id="MkOLtfdrB1ku3LL33Bix-35" style="edgeStyle=none;rounded=0;orthogonalLoop=1;jettySize=auto;html=1;exitX=0;exitY=0;exitDx=0;exitDy=0;entryX=1;entryY=1;entryDx=0;entryDy=0;shape=link;" edge="1" parent="1" source="MkOLtfdrB1ku3LL33Bix-15" target="MkOLtfdrB1ku3LL33Bix-3">
          <mxGeometry relative="1" as="geometry" />
        </mxCell>
        <mxCell id="MkOLtfdrB1ku3LL33Bix-38" style="edgeStyle=none;rounded=0;orthogonalLoop=1;jettySize=auto;html=1;exitX=0.5;exitY=1;exitDx=0;exitDy=0;entryX=0.5;entryY=0;entryDx=0;entryDy=0;shape=link;" edge="1" parent="1" source="MkOLtfdrB1ku3LL33Bix-15" target="MkOLtfdrB1ku3LL33Bix-18">
          <mxGeometry relative="1" as="geometry" />
        </mxCell>
        <mxCell id="MkOLtfdrB1ku3LL33Bix-39" style="edgeStyle=none;rounded=0;orthogonalLoop=1;jettySize=auto;html=1;exitX=0.5;exitY=1;exitDx=0;exitDy=0;entryX=0.5;entryY=0;entryDx=0;entryDy=0;shape=link;" edge="1" parent="1" source="MkOLtfdrB1ku3LL33Bix-15" target="MkOLtfdrB1ku3LL33Bix-19">
          <mxGeometry relative="1" as="geometry" />
        </mxCell>
        <mxCell id="MkOLtfdrB1ku3LL33Bix-40" style="edgeStyle=none;rounded=0;orthogonalLoop=1;jettySize=auto;html=1;exitX=0.5;exitY=1;exitDx=0;exitDy=0;entryX=0.5;entryY=0;entryDx=0;entryDy=0;shape=link;" edge="1" parent="1" source="MkOLtfdrB1ku3LL33Bix-15" target="MkOLtfdrB1ku3LL33Bix-17">
          <mxGeometry relative="1" as="geometry" />
        </mxCell>
        <mxCell id="MkOLtfdrB1ku3LL33Bix-15" value="Community_Center" style="ellipse;whiteSpace=wrap;html=1;" vertex="1" parent="1">
          <mxGeometry x="660" y="-190" width="120" height="80" as="geometry" />
        </mxCell>
        <mxCell id="MkOLtfdrB1ku3LL33Bix-16" value="Co_Working" style="ellipse;whiteSpace=wrap;html=1;" vertex="1" parent="1">
          <mxGeometry x="810" y="-80" width="120" height="80" as="geometry" />
        </mxCell>
        <mxCell id="MkOLtfdrB1ku3LL33Bix-43" style="edgeStyle=none;rounded=0;orthogonalLoop=1;jettySize=auto;html=1;exitX=0.5;exitY=1;exitDx=0;exitDy=0;shape=link;" edge="1" parent="1" source="MkOLtfdrB1ku3LL33Bix-17">
          <mxGeometry relative="1" as="geometry">
            <mxPoint x="740" y="269.9999999999998" as="targetPoint" />
          </mxGeometry>
        </mxCell>
        <mxCell id="MkOLtfdrB1ku3LL33Bix-17" value="Starter_Housing" style="ellipse;whiteSpace=wrap;html=1;" vertex="1" parent="1">
          <mxGeometry x="830" y="140" width="120" height="80" as="geometry" />
        </mxCell>
        <mxCell id="MkOLtfdrB1ku3LL33Bix-42" style="edgeStyle=none;rounded=0;orthogonalLoop=1;jettySize=auto;html=1;exitX=0.5;exitY=1;exitDx=0;exitDy=0;entryX=0.5;entryY=0;entryDx=0;entryDy=0;shape=link;" edge="1" parent="1" source="MkOLtfdrB1ku3LL33Bix-18" target="MkOLtfdrB1ku3LL33Bix-12">
          <mxGeometry relative="1" as="geometry" />
        </mxCell>
        <mxCell id="MkOLtfdrB1ku3LL33Bix-18" value="Assisted_Living" style="ellipse;whiteSpace=wrap;html=1;" vertex="1" parent="1">
          <mxGeometry x="510" y="30" width="120" height="80" as="geometry" />
        </mxCell>
        <mxCell id="MkOLtfdrB1ku3LL33Bix-44" style="edgeStyle=none;rounded=0;orthogonalLoop=1;jettySize=auto;html=1;exitX=0.5;exitY=1;exitDx=0;exitDy=0;entryX=0.5;entryY=0;entryDx=0;entryDy=0;shape=link;" edge="1" parent="1" source="MkOLtfdrB1ku3LL33Bix-19" target="MkOLtfdrB1ku3LL33Bix-12">
          <mxGeometry relative="1" as="geometry" />
        </mxCell>
        <mxCell id="MkOLtfdrB1ku3LL33Bix-19" value="Student_Housing" style="ellipse;whiteSpace=wrap;html=1;" vertex="1" parent="1">
          <mxGeometry x="670" y="110" width="120" height="80" as="geometry" />
        </mxCell>
        <mxCell id="MkOLtfdrB1ku3LL33Bix-22" value="" style="endArrow=none;html=1;rounded=0;entryX=0;entryY=1;entryDx=0;entryDy=0;exitX=1;exitY=0;exitDx=0;exitDy=0;shape=link;" edge="1" parent="1" source="MkOLtfdrB1ku3LL33Bix-13" target="MkOLtfdrB1ku3LL33Bix-15">
          <mxGeometry width="50" height="50" relative="1" as="geometry">
            <mxPoint x="660" y="20" as="sourcePoint" />
            <mxPoint x="710" y="-30" as="targetPoint" />
          </mxGeometry>
        </mxCell>
        <mxCell id="MkOLtfdrB1ku3LL33Bix-23" value="" style="endArrow=none;html=1;rounded=0;entryX=0;entryY=0.5;entryDx=0;entryDy=0;exitX=1;exitY=0.5;exitDx=0;exitDy=0;shape=link;" edge="1" parent="1" source="MkOLtfdrB1ku3LL33Bix-2" target="MkOLtfdrB1ku3LL33Bix-15">
          <mxGeometry width="50" height="50" relative="1" as="geometry">
            <mxPoint x="622.4264068711927" y="-58.284271247461675" as="sourcePoint" />
            <mxPoint x="697.573593128807" y="-111.71572875253787" as="targetPoint" />
          </mxGeometry>
        </mxCell>
        <mxCell id="MkOLtfdrB1ku3LL33Bix-24" value="" style="endArrow=none;html=1;rounded=0;entryX=0;entryY=0.5;entryDx=0;entryDy=0;exitX=1;exitY=0.5;exitDx=0;exitDy=0;shape=link;" edge="1" parent="1" source="MkOLtfdrB1ku3LL33Bix-15" target="MkOLtfdrB1ku3LL33Bix-14">
          <mxGeometry width="50" height="50" relative="1" as="geometry">
            <mxPoint x="650" y="-110" as="sourcePoint" />
            <mxPoint x="680" y="-140" as="targetPoint" />
          </mxGeometry>
        </mxCell>
      </root>
    </mxGraphModel>
  </diagram>
</mxfile>
